<?xml version="1.0" encoding="iso-8859-1"?>
<!-- Uploaded to: SVG Repo, www.svgrepo.com, Generator: SVG Repo Mixer Tools -->
<svg height="800px" width="800px" version="1.1" id="Layer_1" xmlns="http://www.w3.org/2000/svg" xmlns:xlink="http://www.w3.org/1999/xlink" 
	 viewBox="0 0 512 512" xml:space="preserve">
<path style="fill:#F9A926;" d="M256,200.272c-3.87,0-7.739-1.342-10.87-4.021c-7.815-6.702-15.185-12.755-21.989-18.359
	c-32.554-26.761-56.065-46.098-56.065-77.69c0-31.103,23.196-55.467,52.815-55.467c15.728,0,27.598,6.685,36.108,15.386
	c8.51-8.701,20.381-15.386,36.108-15.386c29.619,0,52.815,24.365,52.815,55.467c0,31.593-23.511,50.93-56.065,77.69
	c-6.804,5.603-14.173,11.658-21.989,18.359C263.739,198.93,259.87,200.272,256,200.272z M219.892,78.125
	c-12.75,0-19.424,11.104-19.424,22.076c0,15.146,14.239,27.532,43.881,51.897c3.729,3.071,7.62,6.266,11.652,9.63
	c4.033-3.364,7.924-6.56,11.652-9.63c29.641-24.365,43.881-36.75,43.881-51.897c0-10.972-6.674-22.076-19.424-22.076
	c-14.381,0-19.978,18.571-20.033,18.756c-2.021,7.211-8.587,12.196-16.076,12.196c-7.445,0-13.989-4.935-16.043-12.087
	C239.653,95.994,234.065,78.125,219.892,78.125z"/>
<path style="fill:#E69717;" d="M272.076,96.88c0.055-0.185,5.652-18.756,20.033-18.756c12.75,0,19.424,11.104,19.424,22.076
	c0,15.146-14.239,27.532-43.881,51.897c-3.729,3.071-7.62,6.266-11.652,9.63v38.544c3.87,0,7.739-1.342,10.87-4.021
	c7.815-6.702,15.185-12.755,21.989-18.359c32.554-26.761,56.065-46.098,56.065-77.69c0-31.103-23.196-55.467-52.815-55.467
	c-15.728,0-27.598,6.685-36.108,15.386v48.956C263.49,109.076,270.054,104.093,272.076,96.88z"/>
<path style="fill:#FFC033;" d="M256,166.745c-119.674,0-217.043,119.625-217.043,239.304c0,9.223,7.479,16.696,16.696,16.696
	h400.696c9.217,0,16.696-7.473,16.696-16.696C473.043,286.369,375.674,166.745,256,166.745z"/>
<path style="fill:#F9A926;" d="M456.348,422.745c9.217,0,16.696-7.473,16.696-16.696c0-119.679-97.369-239.304-217.043-239.304v256
	H456.348z"/>
<path style="fill:#FFEFD9;" d="M350.446,305.587c-4.152,0-8.316-1.587-11.489-4.755c-45.739-45.751-120.174-45.751-165.914,0
	c-6.348,6.337-16.63,6.337-22.979,0c-6.337-6.348-6.337-16.63,0-22.979c58.413-58.402,153.456-58.402,211.87,0
	c6.337,6.348,6.337,16.63,0,22.979C358.761,304,354.598,305.587,350.446,305.587z"/>
<path style="fill:#FFD9B3;" d="M338.956,300.831c3.174,3.169,7.337,4.755,11.489,4.755c4.152,0,8.316-1.587,11.489-4.755
	c6.337-6.348,6.337-16.63,0-22.979c-29.206-29.201-67.571-43.802-105.935-43.802v32.467
	C286.043,266.519,316.087,277.957,338.956,300.831z"/>
<path style="fill:#A6673A;" d="M478.609,467.267H33.391C14.949,467.267,0,452.317,0,433.875l0,0
	c0-18.442,14.949-33.391,33.391-33.391h445.217c18.442,0,33.391,14.949,33.391,33.391l0,0
	C512,452.316,497.051,467.267,478.609,467.267z"/>
<path style="fill:#99522E;" d="M478.609,400.484H256v66.783h222.609c18.442,0,33.391-14.949,33.391-33.391
	S497.051,400.484,478.609,400.484z"/>
</svg>